%YAML 1.1
%TAG !u! tag:unity3d.com,2011:
--- !u!43 &4300000
Mesh:
  m_ObjectHideFlags: 0
  m_CorrespondingSourceObject: {fileID: 0}
  m_PrefabInstance: {fileID: 0}
  m_PrefabAsset: {fileID: 0}
  m_Name: hull13
  serializedVersion: 11
  m_SubMeshes:
  - serializedVersion: 2
    firstByte: 0
    indexCount: 162
    topology: 0
    baseVertex: 0
    firstVertex: 0
    vertexCount: 29
    localAABB:
      m_Center: {x: 0.015394064, y: -0.016319418, z: 0.014355517}
      m_Extent: {x: 0.015044745, y: 0.01701544, z: 0.015798505}
  m_Shapes:
    vertices: []
    shapes: []
    channels: []
    fullWeights: []
  m_BindPose: []
  m_BoneNameHashes: 
  m_RootBoneNameHash: 0
  m_BonesAABB: []
  m_VariableBoneCountWeights:
    m_Data: 
  m_MeshCompression: 0
  m_IsReadable: 1
  m_KeepVertices: 1
  m_KeepIndices: 1
  m_IndexFormat: 0
  m_IndexBuffer: 14000e001c00010002000500070003000900080007000900090003000a00090001000c00030007000d0000000a000d00020001000e00050002000e0006000b000e00080004000f00070008000f000100050010000500040010000400080010000c000100100005000b00110000000d0012000d00070012001100000012000400110012000b000600130000001100130011000b00130009000600140006000e0014000600090015000a000000150009000a00150000001300150013000600150004000500160011000400160005001100160008000900170009000c0017000a000300180003000d0018000d000a0018000f000400190007000f0019001200070019000400120019000b0005001a0005000e001a000e000b001a00100008001b000c0010001b00080017001b0017000c001b00010009001c000e0001001c00090014001c00
  m_VertexData:
    serializedVersion: 3
    m_VertexCount: 29
    m_Channels:
    - stream: 0
      offset: 0
      format: 0
      dimension: 3
    - stream: 0
      offset: 0
      format: 0
      dimension: 0
    - stream: 0
      offset: 0
      format: 0
      dimension: 0
    - stream: 0
      offset: 0
      format: 0
      dimension: 0
    - stream: 0
      offset: 0
      format: 0
      dimension: 0
    - stream: 0
      offset: 0
      format: 0
      dimension: 0
    - stream: 0
      offset: 0
      format: 0
      dimension: 0
    - stream: 0
      offset: 0
      format: 0
      dimension: 0
    - stream: 0
      offset: 0
      format: 0
      dimension: 0
    - stream: 0
      offset: 0
      format: 0
      dimension: 0
    - stream: 0
      offset: 0
      format: 0
      dimension: 0
    - stream: 0
      offset: 0
      format: 0
      dimension: 0
    - stream: 0
      offset: 0
      format: 0
      dimension: 0
    - stream: 0
      offset: 0
      format: 0
      dimension: 0
    m_DataSize: 348
    _typelessdata: 64f1c93c4075363a77bc8e3cc024b73980c2f0bc869ec73c3a479f3a9436eabc0beeef3c50def23ce4bdfcbc47fb613a36d96d3aa58ec7388ba6a63b9160b03a6e77bfba84dcee3c7c0c913cf9dc01bd8819d13c6746f23c0c28aeba64f7743a0a2aa33b003258bc00ae9338ab92d13c228a08bda022bdba5ce8dc3cf9dc01bd3f99773c62377c3c80adf3b98a94da3cc024b739564fd4bc7541853ccf5af93c80adf3b9f0d6e53bfa17c93b393efabc9105f73ce29aa03b53ac55ba4821c13ac024b7398e3a45bcdefe993b62377c3c4075363a8819d13c53dfef3c4075363af0d6e53bf8879a3c80adf3b9869ec73ced790a3cf9dc01bd869ec73c64f1c93cf9dc01bd7a37983c48a8bb3ab129f6b9ab5be53c1f59693c8b5ec1bc00ae9338187aed3ca6eff6bc5b25dd3b54c7e73c135eefb9107f953a8734eb3b564c0dbb3a2ae93cc024b7398b5ec1bc94af643c34787a3b393efabc869ec73c
  m_CompressedMesh:
    m_Vertices:
      m_NumItems: 0
      m_Range: 0
      m_Start: 0
      m_Data: 
      m_BitSize: 0
    m_UV:
      m_NumItems: 0
      m_Range: 0
      m_Start: 0
      m_Data: 
      m_BitSize: 0
    m_Normals:
      m_NumItems: 0
      m_Range: 0
      m_Start: 0
      m_Data: 
      m_BitSize: 0
    m_Tangents:
      m_NumItems: 0
      m_Range: 0
      m_Start: 0
      m_Data: 
      m_BitSize: 0
    m_Weights:
      m_NumItems: 0
      m_Data: 
      m_BitSize: 0
    m_NormalSigns:
      m_NumItems: 0
      m_Data: 
      m_BitSize: 0
    m_TangentSigns:
      m_NumItems: 0
      m_Data: 
      m_BitSize: 0
    m_FloatColors:
      m_NumItems: 0
      m_Range: 0
      m_Start: 0
      m_Data: 
      m_BitSize: 0
    m_BoneIndices:
      m_NumItems: 0
      m_Data: 
      m_BitSize: 0
    m_Triangles:
      m_NumItems: 0
      m_Data: 
      m_BitSize: 0
    m_UVInfo: 0
  m_LocalAABB:
    m_Center: {x: 0.015394064, y: -0.016319418, z: 0.014355517}
    m_Extent: {x: 0.015044745, y: 0.01701544, z: 0.015798505}
  m_MeshUsageFlags: 0
  m_CookingOptions: 30
  m_BakedConvexCollisionMesh: 
  m_BakedTriangleCollisionMesh: 
  m_MeshMetrics[0]: 1
  m_MeshMetrics[1]: 1
  m_MeshOptimizationFlags: 1
  m_StreamData:
    serializedVersion: 2
    offset: 0
    size: 0
    path: 
