%YAML 1.1
%TAG !u! tag:unity3d.com,2011:
--- !u!43 &4300000
Mesh:
  m_ObjectHideFlags: 0
  m_CorrespondingSourceObject: {fileID: 0}
  m_PrefabInstance: {fileID: 0}
  m_PrefabAsset: {fileID: 0}
  m_Name: hull5
  serializedVersion: 11
  m_SubMeshes:
  - serializedVersion: 2
    firstByte: 0
    indexCount: 114
    topology: 0
    baseVertex: 0
    firstVertex: 0
    vertexCount: 21
    localAABB:
      m_Center: {x: 0.021758413, y: -0.062374998, z: 0.015690865}
      m_Extent: {x: 0.007521637, y: 0.012150336, z: 0.009836949}
  m_Shapes:
    vertices: []
    shapes: []
    channels: []
    fullWeights: []
  m_BindPose: []
  m_BoneNameHashes: 
  m_RootBoneNameHash: 0
  m_BonesAABB: []
  m_VariableBoneCountWeights:
    m_Data: 
  m_MeshCompression: 0
  m_IsReadable: 1
  m_KeepVertices: 1
  m_KeepIndices: 1
  m_IndexFormat: 0
  m_IndexBuffer: 13000b001400030001000400000004000600020001000700010003000700000003000900040000000900030004000900000006000b00040001000d00060004000d000a0006000d000a000d000e0006000a000e000d0001000e00030000000f00050003000f0000000b000f000c0005000f000300050010000700030010000500070010000100020011000200070011000700080011000e000100110006000e0011000700050012000800070012000c000800120005000c00120008000c0013000f000b0013000c000f0013000b0006001400110008001400060011001400080013001400
  m_VertexData:
    serializedVersion: 3
    m_VertexCount: 21
    m_Channels:
    - stream: 0
      offset: 0
      format: 0
      dimension: 3
    - stream: 0
      offset: 0
      format: 0
      dimension: 0
    - stream: 0
      offset: 0
      format: 0
      dimension: 0
    - stream: 0
      offset: 0
      format: 0
      dimension: 0
    - stream: 0
      offset: 0
      format: 0
      dimension: 0
    - stream: 0
      offset: 0
      format: 0
      dimension: 0
    - stream: 0
      offset: 0
      format: 0
      dimension: 0
    - stream: 0
      offset: 0
      format: 0
      dimension: 0
    - stream: 0
      offset: 0
      format: 0
      dimension: 0
    - stream: 0
      offset: 0
      format: 0
      dimension: 0
    - stream: 0
      offset: 0
      format: 0
      dimension: 0
    - stream: 0
      offset: 0
      format: 0
      dimension: 0
    - stream: 0
      offset: 0
      format: 0
      dimension: 0
    - stream: 0
      offset: 0
      format: 0
      dimension: 0
    m_DataSize: 252
    _typelessdata: b7dcef3cbda098bd34d2bf3b8315913c60b84dbdb51fd13c6c18753c748052bdac61c93cbaefc93c60b84dbd34d2bf3bb7dcef3c60b84dbd92b93e3c7b74c03c4be393bd30bfe53bb7dcef3cd9258fbd92b93e3c5e41693c60b84dbd79b7a13c5e41693c586f65bd76a4c73c12a2ed3c48854fbd677bcb3b7b74c03c1f6578bd79b7a13cbaefc93cbda098bd30bfe53b0a3e7c3c6ea673bd3a3c983c4187ad3c60b84dbd2d25be3cc2909a3c586f65bd76a4c73cbaefc93cbda098bd34d2bf3b7b74c03c60b84dbd30bfe53b5e41693ca6b060bdb51fd13c5e41693c586f65bd79b7a13c449a873c52217dbd3a3c983c3cf9b63cd9258fbd92b93e3c
  m_CompressedMesh:
    m_Vertices:
      m_NumItems: 0
      m_Range: 0
      m_Start: 0
      m_Data: 
      m_BitSize: 0
    m_UV:
      m_NumItems: 0
      m_Range: 0
      m_Start: 0
      m_Data: 
      m_BitSize: 0
    m_Normals:
      m_NumItems: 0
      m_Range: 0
      m_Start: 0
      m_Data: 
      m_BitSize: 0
    m_Tangents:
      m_NumItems: 0
      m_Range: 0
      m_Start: 0
      m_Data: 
      m_BitSize: 0
    m_Weights:
      m_NumItems: 0
      m_Data: 
      m_BitSize: 0
    m_NormalSigns:
      m_NumItems: 0
      m_Data: 
      m_BitSize: 0
    m_TangentSigns:
      m_NumItems: 0
      m_Data: 
      m_BitSize: 0
    m_FloatColors:
      m_NumItems: 0
      m_Range: 0
      m_Start: 0
      m_Data: 
      m_BitSize: 0
    m_BoneIndices:
      m_NumItems: 0
      m_Data: 
      m_BitSize: 0
    m_Triangles:
      m_NumItems: 0
      m_Data: 
      m_BitSize: 0
    m_UVInfo: 0
  m_LocalAABB:
    m_Center: {x: 0.021758413, y: -0.062374998, z: 0.015690865}
    m_Extent: {x: 0.007521637, y: 0.012150336, z: 0.009836949}
  m_MeshUsageFlags: 0
  m_CookingOptions: 30
  m_BakedConvexCollisionMesh: 
  m_BakedTriangleCollisionMesh: 
  m_MeshMetrics[0]: 1
  m_MeshMetrics[1]: 1
  m_MeshOptimizationFlags: 1
  m_StreamData:
    serializedVersion: 2
    offset: 0
    size: 0
    path: 
