%YAML 1.1
%TAG !u! tag:unity3d.com,2011:
--- !u!43 &4300000
Mesh:
  m_ObjectHideFlags: 0
  m_CorrespondingSourceObject: {fileID: 0}
  m_PrefabInstance: {fileID: 0}
  m_PrefabAsset: {fileID: 0}
  m_Name: hull6
  serializedVersion: 11
  m_SubMeshes:
  - serializedVersion: 2
    firstByte: 0
    indexCount: 126
    topology: 0
    baseVertex: 0
    firstVertex: 0
    vertexCount: 23
    localAABB:
      m_Center: {x: -0.024532378, y: -0.024764318, z: -0.012084051}
      m_Extent: {x: 0.005206776, y: 0.02546034, z: 0.010994238}
  m_Shapes:
    vertices: []
    shapes: []
    channels: []
    fullWeights: []
  m_BindPose: []
  m_BoneNameHashes: 
  m_RootBoneNameHash: 0
  m_BonesAABB: []
  m_VariableBoneCountWeights:
    m_Data: 
  m_MeshCompression: 0
  m_IsReadable: 1
  m_KeepVertices: 1
  m_KeepIndices: 1
  m_IndexFormat: 0
  m_IndexBuffer: 0f0014001600050004000600040003000600030005000600040005000800010003000900030004000900020001000a00010009000a00080000000c000a0009000c0000000a000c00040008000d00090004000d0008000c000d00010002000e0002000a000e000e000a000f0005000300100003000b0010000300010011000b000300110007000b00110001000e0011000e00070011000500000012000000080012000800050012000c000900130009000d0013000d000c0013000b00070014000f000500140005001000140010000b0014000000050015000a000000150005000f0015000f000a00150007000e0016000e000f001600140007001600
  m_VertexData:
    serializedVersion: 3
    m_VertexCount: 23
    m_Channels:
    - stream: 0
      offset: 0
      format: 0
      dimension: 3
    - stream: 0
      offset: 0
      format: 0
      dimension: 0
    - stream: 0
      offset: 0
      format: 0
      dimension: 0
    - stream: 0
      offset: 0
      format: 0
      dimension: 0
    - stream: 0
      offset: 0
      format: 0
      dimension: 0
    - stream: 0
      offset: 0
      format: 0
      dimension: 0
    - stream: 0
      offset: 0
      format: 0
      dimension: 0
    - stream: 0
      offset: 0
      format: 0
      dimension: 0
    - stream: 0
      offset: 0
      format: 0
      dimension: 0
    - stream: 0
      offset: 0
      format: 0
      dimension: 0
    - stream: 0
      offset: 0
      format: 0
      dimension: 0
    - stream: 0
      offset: 0
      format: 0
      dimension: 0
    - stream: 0
      offset: 0
      format: 0
      dimension: 0
    - stream: 0
      offset: 0
      format: 0
      dimension: 0
    m_DataSize: 276
    _typelessdata: 65cda7bcd29319bd3f92b3bc82e79fbc465d84b91587c4ba31e9a1bc9014beba5dc7acbc869ff3bc80f9f3b910d88eba76c2babc5fb84dbd10d88eba869ff3bc5fb84dbd962884bc869ff3bc5fb84dbd10d88eba41b3cdbc80f9f3b982a08dbc65cda7bc5fb84dbdf11c97bcb9509ebca657d4bc10d88ebab9509ebc54d1a6bbae0ebdbcda22eabc80f9f3b9e88f29bcb9509ebcee0c23bdf11c97bc65cda7bc5fb84dbde88f29bc65cda7bc4075363a3f92b3bc65cda7bc54d1a6bbae0ebdbc869ff3bc54d1a6bba75ce1bbda22eabc4075363a32a703bcff3cc4bc5fb84dbdf11c97bcb9509ebcee0c23bd766862bc869ff3bc97f648bd962884bc65cda7bca93832bcae0ebdbced47b1bc54d1a6bb3f92b3bc
  m_CompressedMesh:
    m_Vertices:
      m_NumItems: 0
      m_Range: 0
      m_Start: 0
      m_Data: 
      m_BitSize: 0
    m_UV:
      m_NumItems: 0
      m_Range: 0
      m_Start: 0
      m_Data: 
      m_BitSize: 0
    m_Normals:
      m_NumItems: 0
      m_Range: 0
      m_Start: 0
      m_Data: 
      m_BitSize: 0
    m_Tangents:
      m_NumItems: 0
      m_Range: 0
      m_Start: 0
      m_Data: 
      m_BitSize: 0
    m_Weights:
      m_NumItems: 0
      m_Data: 
      m_BitSize: 0
    m_NormalSigns:
      m_NumItems: 0
      m_Data: 
      m_BitSize: 0
    m_TangentSigns:
      m_NumItems: 0
      m_Data: 
      m_BitSize: 0
    m_FloatColors:
      m_NumItems: 0
      m_Range: 0
      m_Start: 0
      m_Data: 
      m_BitSize: 0
    m_BoneIndices:
      m_NumItems: 0
      m_Data: 
      m_BitSize: 0
    m_Triangles:
      m_NumItems: 0
      m_Data: 
      m_BitSize: 0
    m_UVInfo: 0
  m_LocalAABB:
    m_Center: {x: -0.024532378, y: -0.024764318, z: -0.012084051}
    m_Extent: {x: 0.005206776, y: 0.02546034, z: 0.010994238}
  m_MeshUsageFlags: 0
  m_CookingOptions: 30
  m_BakedConvexCollisionMesh: 
  m_BakedTriangleCollisionMesh: 
  m_MeshMetrics[0]: 1
  m_MeshMetrics[1]: 1
  m_MeshOptimizationFlags: 1
  m_StreamData:
    serializedVersion: 2
    offset: 0
    size: 0
    path: 
