%YAML 1.1
%TAG !u! tag:unity3d.com,2011:
--- !u!43 &4300000
Mesh:
  m_ObjectHideFlags: 0
  m_CorrespondingSourceObject: {fileID: 0}
  m_PrefabInstance: {fileID: 0}
  m_PrefabAsset: {fileID: 0}
  m_Name: hull12
  serializedVersion: 11
  m_SubMeshes:
  - serializedVersion: 2
    firstByte: 0
    indexCount: 114
    topology: 0
    baseVertex: 0
    firstVertex: 0
    vertexCount: 21
    localAABB:
      m_Center: {x: 0.021759149, y: -0.04096635, z: 0.013376288}
      m_Extent: {x: 0.00867966, y: 0.009256493, z: 0.013308814}
  m_Shapes:
    vertices: []
    shapes: []
    channels: []
    fullWeights: []
  m_BindPose: []
  m_BoneNameHashes: 
  m_RootBoneNameHash: 0
  m_BonesAABB: []
  m_VariableBoneCountWeights:
    m_Data: 
  m_MeshCompression: 0
  m_IsReadable: 1
  m_KeepVertices: 1
  m_KeepIndices: 1
  m_IndexFormat: 0
  m_IndexBuffer: 0e000c001400020001000300020000000600010002000700040001000700030001000800010004000800000002000900080004000a00060000000b00030008000c00080005000c00050009000c00020006000d00060007000d00070002000d00020003000e00090002000e0003000c000e0000000a000f000a0004000f000b0000000f0004000b000f0004000600100006000b0010000b00040010000000090011000900050011000a000000110006000400120004000700120007000600120005000800130008000a0013001100050013000a00110013000c000900140009000e001400
  m_VertexData:
    serializedVersion: 3
    m_VertexCount: 21
    m_Channels:
    - stream: 0
      offset: 0
      format: 0
      dimension: 3
    - stream: 0
      offset: 0
      format: 0
      dimension: 0
    - stream: 0
      offset: 0
      format: 0
      dimension: 0
    - stream: 0
      offset: 0
      format: 0
      dimension: 0
    - stream: 0
      offset: 0
      format: 0
      dimension: 0
    - stream: 0
      offset: 0
      format: 0
      dimension: 0
    - stream: 0
      offset: 0
      format: 0
      dimension: 0
    - stream: 0
      offset: 0
      format: 0
      dimension: 0
    - stream: 0
      offset: 0
      format: 0
      dimension: 0
    - stream: 0
      offset: 0
      format: 0
      dimension: 0
    - stream: 0
      offset: 0
      format: 0
      dimension: 0
    - stream: 0
      offset: 0
      format: 0
      dimension: 0
    - stream: 0
      offset: 0
      format: 0
      dimension: 0
    - stream: 0
      offset: 0
      format: 0
      dimension: 0
    m_DataSize: 252
    _typelessdata: a384ad3c32e201bd04adb43c64f1c93c78b64dbd00818d3864f1c93c32e201bd00818d385a4b563cde5e0bbdf532ab3ce9d8ef3c78b64dbdf8c43e3c903d7c3c22f848bdb79ada3ccf5af93c32e201bd0dd5bf3bcf5af93c78b64dbd00818d38264f693c78b64dbd6fb3a13c903d7c3c32e201bdb79ada3ca384ad3c78b64dbd1327be3c5ee3dc3c32e201bd788b773c5a4b563c62cb27bdb79ada3c1d60f23cea9a05bdad11b43a5a4b563c32e201bdf532ab3c64f1c93c32e201bd6039983ce9d8ef3c32e201bddad02b3c5314913c32e201bd311bd13ccf5af93ccc3944bdd0ec993b5314913c78b64dbd311bd13c537a623cc22105bd8043d13c
  m_CompressedMesh:
    m_Vertices:
      m_NumItems: 0
      m_Range: 0
      m_Start: 0
      m_Data: 
      m_BitSize: 0
    m_UV:
      m_NumItems: 0
      m_Range: 0
      m_Start: 0
      m_Data: 
      m_BitSize: 0
    m_Normals:
      m_NumItems: 0
      m_Range: 0
      m_Start: 0
      m_Data: 
      m_BitSize: 0
    m_Tangents:
      m_NumItems: 0
      m_Range: 0
      m_Start: 0
      m_Data: 
      m_BitSize: 0
    m_Weights:
      m_NumItems: 0
      m_Data: 
      m_BitSize: 0
    m_NormalSigns:
      m_NumItems: 0
      m_Data: 
      m_BitSize: 0
    m_TangentSigns:
      m_NumItems: 0
      m_Data: 
      m_BitSize: 0
    m_FloatColors:
      m_NumItems: 0
      m_Range: 0
      m_Start: 0
      m_Data: 
      m_BitSize: 0
    m_BoneIndices:
      m_NumItems: 0
      m_Data: 
      m_BitSize: 0
    m_Triangles:
      m_NumItems: 0
      m_Data: 
      m_BitSize: 0
    m_UVInfo: 0
  m_LocalAABB:
    m_Center: {x: 0.021759149, y: -0.04096635, z: 0.013376288}
    m_Extent: {x: 0.00867966, y: 0.009256493, z: 0.013308814}
  m_MeshUsageFlags: 0
  m_CookingOptions: 30
  m_BakedConvexCollisionMesh: 
  m_BakedTriangleCollisionMesh: 
  m_MeshMetrics[0]: 1
  m_MeshMetrics[1]: 1
  m_MeshOptimizationFlags: 1
  m_StreamData:
    serializedVersion: 2
    offset: 0
    size: 0
    path: 
