%YAML 1.1
%TAG !u! tag:unity3d.com,2011:
--- !u!43 &4300000
Mesh:
  m_ObjectHideFlags: 0
  m_CorrespondingSourceObject: {fileID: 0}
  m_PrefabInstance: {fileID: 0}
  m_PrefabAsset: {fileID: 0}
  m_Name: hull7
  serializedVersion: 11
  m_SubMeshes:
  - serializedVersion: 2
    firstByte: 0
    indexCount: 138
    topology: 0
    baseVertex: 0
    firstVertex: 0
    vertexCount: 25
    localAABB:
      m_Center: {x: -0.009488594, y: -0.018979803, z: -0.015555916}
      m_Extent: {x: 0.009835986, y: 0.019671973, z: 0.01446327}
  m_Shapes:
    vertices: []
    shapes: []
    channels: []
    fullWeights: []
  m_BindPose: []
  m_BoneNameHashes: 
  m_RootBoneNameHash: 0
  m_BonesAABB: []
  m_VariableBoneCountWeights:
    m_Data: 
  m_MeshCompression: 0
  m_IsReadable: 1
  m_KeepVertices: 1
  m_KeepIndices: 1
  m_IndexFormat: 0
  m_IndexBuffer: 15000d001800030001000400000001000600040001000800070006000900060001000b00030004000c000b0003000e0003000c000e000c000a000e00010000000f00000006000f00060005000f00080001000f0009000600100006000b0010000b00020010000500040011000400080011000f000500110008000f0011000500060012000700050012000600070012000a000c0013000d000900130009000e0013000e000a00130004000500140005000700140007000900150009000d00150004001400150014000700150002000b0016000e00090016000b000e0016001000020016000900100016000100030017000b000100170003000b0017000c000400180013000c0018000d0013001800040015001800
  m_VertexData:
    serializedVersion: 3
    m_VertexCount: 25
    m_Channels:
    - stream: 0
      offset: 0
      format: 0
      dimension: 3
    - stream: 0
      offset: 0
      format: 0
      dimension: 0
    - stream: 0
      offset: 0
      format: 0
      dimension: 0
    - stream: 0
      offset: 0
      format: 0
      dimension: 0
    - stream: 0
      offset: 0
      format: 0
      dimension: 0
    - stream: 0
      offset: 0
      format: 0
      dimension: 0
    - stream: 0
      offset: 0
      format: 0
      dimension: 0
    - stream: 0
      offset: 0
      format: 0
      dimension: 0
    - stream: 0
      offset: 0
      format: 0
      dimension: 0
    - stream: 0
      offset: 0
      format: 0
      dimension: 0
    - stream: 0
      offset: 0
      format: 0
      dimension: 0
    - stream: 0
      offset: 0
      format: 0
      dimension: 0
    - stream: 0
      offset: 0
      format: 0
      dimension: 0
    - stream: 0
      offset: 0
      format: 0
      dimension: 0
    m_DataSize: 300
    _typelessdata: 394c97bb8bd016baeead04bb4022b639c072353a188e95bbc57386bc4dea62ba9ce0c0bc4022b63980ddf4b9cceaf5bc4022b639be9706bd6081c6bc84d981bc6f4dd4bc20378fbab0809abcc41978b907b8e8ba954e9ebc53511ebd7d2a84bc4022b6391b4345bc188e95bb954e9ebc034532bc6081c6bcbd6102bc0b73f7bc05f8e7bc1426d8bbc072353a206eecbcf53e78b9c087fdbc77e1eebc971498bc25540fbde647b8bc1e12febb12571fbccceaf5bc014e8cbb0c3158bc20378fbab47999bcef8affb9e66db0bc4022b6396a57c1bc0a7a62bc7d4693bcf985ccbcf66049bb285685bc839e09bd7227c8bc89cf94bc53511ebd7d2a84bc954e9ebc53511ebd39a18dbcd3b685bc41380dbbdea5c8bc014e8cbbc072353a206eecbc78ada1b96dcd02bdd329e5bc
  m_CompressedMesh:
    m_Vertices:
      m_NumItems: 0
      m_Range: 0
      m_Start: 0
      m_Data: 
      m_BitSize: 0
    m_UV:
      m_NumItems: 0
      m_Range: 0
      m_Start: 0
      m_Data: 
      m_BitSize: 0
    m_Normals:
      m_NumItems: 0
      m_Range: 0
      m_Start: 0
      m_Data: 
      m_BitSize: 0
    m_Tangents:
      m_NumItems: 0
      m_Range: 0
      m_Start: 0
      m_Data: 
      m_BitSize: 0
    m_Weights:
      m_NumItems: 0
      m_Data: 
      m_BitSize: 0
    m_NormalSigns:
      m_NumItems: 0
      m_Data: 
      m_BitSize: 0
    m_TangentSigns:
      m_NumItems: 0
      m_Data: 
      m_BitSize: 0
    m_FloatColors:
      m_NumItems: 0
      m_Range: 0
      m_Start: 0
      m_Data: 
      m_BitSize: 0
    m_BoneIndices:
      m_NumItems: 0
      m_Data: 
      m_BitSize: 0
    m_Triangles:
      m_NumItems: 0
      m_Data: 
      m_BitSize: 0
    m_UVInfo: 0
  m_LocalAABB:
    m_Center: {x: -0.009488594, y: -0.018979803, z: -0.015555916}
    m_Extent: {x: 0.009835986, y: 0.019671973, z: 0.01446327}
  m_MeshUsageFlags: 0
  m_CookingOptions: 30
  m_BakedConvexCollisionMesh: 
  m_BakedTriangleCollisionMesh: 
  m_MeshMetrics[0]: 1
  m_MeshMetrics[1]: 1
  m_MeshOptimizationFlags: 1
  m_StreamData:
    serializedVersion: 2
    offset: 0
    size: 0
    path: 
