%YAML 1.1
%TAG !u! tag:unity3d.com,2011:
--- !u!43 &4300000
Mesh:
  m_ObjectHideFlags: 0
  m_CorrespondingSourceObject: {fileID: 0}
  m_PrefabInstance: {fileID: 0}
  m_PrefabAsset: {fileID: 0}
  m_Name: hull11
  serializedVersion: 11
  m_SubMeshes:
  - serializedVersion: 2
    firstByte: 0
    indexCount: 138
    topology: 0
    baseVertex: 0
    firstVertex: 0
    vertexCount: 25
    localAABB:
      m_Center: {x: 0.025231011, y: -0.024764318, z: -0.011505407}
      m_Extent: {x: 0.005206776, y: 0.02546034, z: 0.011572882}
  m_Shapes:
    vertices: []
    shapes: []
    channels: []
    fullWeights: []
  m_BindPose: []
  m_BoneNameHashes: 
  m_RootBoneNameHash: 0
  m_BonesAABB: []
  m_VariableBoneCountWeights:
    m_Data: 
  m_MeshCompression: 0
  m_IsReadable: 1
  m_KeepVertices: 1
  m_KeepIndices: 1
  m_IndexFormat: 0
  m_IndexBuffer: 11000d001800040002000500020004000700040005000800000001000900020000000900010000000c00090001000c00060009000c00090006000d00080005000e00050009000e000d0008000e0009000d000e0004000b000f000000020010000700000010000200070010000b000800110008000d00110005000200120002000900120009000500120013000a0014000000070014000a00030014000c000000140003000c0014000700130014000400080015000b000400150008000b0015000c000300160006000c00160004000f0016000f000600160007000400170003000a0017001300070017000a00130017001600030017000400160017000d000600180006000f0018000f000b0018000b0011001800
  m_VertexData:
    serializedVersion: 3
    m_VertexCount: 25
    m_Channels:
    - stream: 0
      offset: 0
      format: 0
      dimension: 3
    - stream: 0
      offset: 0
      format: 0
      dimension: 0
    - stream: 0
      offset: 0
      format: 0
      dimension: 0
    - stream: 0
      offset: 0
      format: 0
      dimension: 0
    - stream: 0
      offset: 0
      format: 0
      dimension: 0
    - stream: 0
      offset: 0
      format: 0
      dimension: 0
    - stream: 0
      offset: 0
      format: 0
      dimension: 0
    - stream: 0
      offset: 0
      format: 0
      dimension: 0
    - stream: 0
      offset: 0
      format: 0
      dimension: 0
    - stream: 0
      offset: 0
      format: 0
      dimension: 0
    - stream: 0
      offset: 0
      format: 0
      dimension: 0
    - stream: 0
      offset: 0
      format: 0
      dimension: 0
    - stream: 0
      offset: 0
      format: 0
      dimension: 0
    - stream: 0
      offset: 0
      format: 0
      dimension: 0
    m_DataSize: 300
    _typelessdata: ffdbef3c4075363a00818d38a1aca53cac0093b97650c5b9ab58f93c5fb84dbd00818d389b7bc03c80f9f3b9c316aabcab58f93c5fb84dbdad2b84bc9b7bc03c5fb84dbd48e78ebade09a43cf01036bbae0ebdbcab58f93c80f9f3b9558995bb8a86ad3c5fb84dbdd81e97bcde09a43ca657d4bc00818d387761e63c80f9f3b9836762bc8a86ad3cd29319bdf88db3bcde09a43c4075363af88db3bcde09a43c60501ebd836762bc8a86ad3c5fb84dbdc29229bc8a86ad3ca93832bcae0ebdbcab58f93c80f9f3b900818d38cddaa73c8ee914bd3aecabbc23f6c93c5fb84dbd00818d38ffdbef3c80f9f3b9c29229bceee6dc3c4075363a836762bc23f6c93c5fb84dbdd81e97bc8a86ad3cf01036bbae0ebdbcab58f93c97f648bdad2b84bcde09a43ca93832bcae0ebdbc
  m_CompressedMesh:
    m_Vertices:
      m_NumItems: 0
      m_Range: 0
      m_Start: 0
      m_Data: 
      m_BitSize: 0
    m_UV:
      m_NumItems: 0
      m_Range: 0
      m_Start: 0
      m_Data: 
      m_BitSize: 0
    m_Normals:
      m_NumItems: 0
      m_Range: 0
      m_Start: 0
      m_Data: 
      m_BitSize: 0
    m_Tangents:
      m_NumItems: 0
      m_Range: 0
      m_Start: 0
      m_Data: 
      m_BitSize: 0
    m_Weights:
      m_NumItems: 0
      m_Data: 
      m_BitSize: 0
    m_NormalSigns:
      m_NumItems: 0
      m_Data: 
      m_BitSize: 0
    m_TangentSigns:
      m_NumItems: 0
      m_Data: 
      m_BitSize: 0
    m_FloatColors:
      m_NumItems: 0
      m_Range: 0
      m_Start: 0
      m_Data: 
      m_BitSize: 0
    m_BoneIndices:
      m_NumItems: 0
      m_Data: 
      m_BitSize: 0
    m_Triangles:
      m_NumItems: 0
      m_Data: 
      m_BitSize: 0
    m_UVInfo: 0
  m_LocalAABB:
    m_Center: {x: 0.025231011, y: -0.024764318, z: -0.011505407}
    m_Extent: {x: 0.005206776, y: 0.02546034, z: 0.011572882}
  m_MeshUsageFlags: 0
  m_CookingOptions: 30
  m_BakedConvexCollisionMesh: 
  m_BakedTriangleCollisionMesh: 
  m_MeshMetrics[0]: 1
  m_MeshMetrics[1]: 1
  m_MeshOptimizationFlags: 1
  m_StreamData:
    serializedVersion: 2
    offset: 0
    size: 0
    path: 
