%YAML 1.1
%TAG !u! tag:unity3d.com,2011:
--- !u!43 &4300000
Mesh:
  m_ObjectHideFlags: 0
  m_CorrespondingSourceObject: {fileID: 0}
  m_PrefabInstance: {fileID: 0}
  m_PrefabAsset: {fileID: 0}
  m_Name: hull8
  serializedVersion: 11
  m_SubMeshes:
  - serializedVersion: 2
    firstByte: 0
    indexCount: 114
    topology: 0
    baseVertex: 0
    firstVertex: 0
    vertexCount: 21
    localAABB:
      m_Center: {x: -0.02106221, y: -0.04185678, z: 0.012298789}
      m_Extent: {x: 0.008677962, y: 0.008991446, z: 0.014386313}
  m_Shapes:
    vertices: []
    shapes: []
    channels: []
    fullWeights: []
  m_BindPose: []
  m_BoneNameHashes: 
  m_RootBoneNameHash: 0
  m_BonesAABB: []
  m_VariableBoneCountWeights:
    m_Data: 
  m_MeshCompression: 0
  m_IsReadable: 1
  m_KeepVertices: 1
  m_KeepIndices: 1
  m_IndexFormat: 0
  m_IndexBuffer: 0b000f001400000004000500040002000700050004000700030002000800020004000800000005000900020003000a00060002000a00080004000b00020006000c00060009000c00020001000d00010005000d00070002000d00050007000d00010002000e00050001000e0002000c000e000c0005000e000a0003000f0000000a000f0000000900100009000600100006000a00100009000500110005000c0011000c00090011000400000012000b000400120000000f0012000f000b0012000a000000130000001000130010000a00130003000800140008000b0014000f0003001400
  m_VertexData:
    serializedVersion: 3
    m_VertexCount: 21
    m_Channels:
    - stream: 0
      offset: 0
      format: 0
      dimension: 3
    - stream: 0
      offset: 0
      format: 0
      dimension: 0
    - stream: 0
      offset: 0
      format: 0
      dimension: 0
    - stream: 0
      offset: 0
      format: 0
      dimension: 0
    - stream: 0
      offset: 0
      format: 0
      dimension: 0
    - stream: 0
      offset: 0
      format: 0
      dimension: 0
    - stream: 0
      offset: 0
      format: 0
      dimension: 0
    - stream: 0
      offset: 0
      format: 0
      dimension: 0
    - stream: 0
      offset: 0
      format: 0
      dimension: 0
    - stream: 0
      offset: 0
      format: 0
      dimension: 0
    - stream: 0
      offset: 0
      format: 0
      dimension: 0
    - stream: 0
      offset: 0
      format: 0
      dimension: 0
    - stream: 0
      offset: 0
      format: 0
      dimension: 0
    - stream: 0
      offset: 0
      format: 0
      dimension: 0
    m_DataSize: 252
    _typelessdata: ca5d8bbccd9d06bdce1dd13cdd52edbcd0904abd6b5715392de9c5bc3b4650bdd8ce08bb41e381bc5fb84dbdce1dd13c4ee74abccd9d06bd2a2aab3caaa1f3bccd9d06bd2e0c9a3bef2ad7bc5fb84dbd0b8a773cde35c4bccd9d06bd10d88eba5fdc5dbc5fb84dbda9b8a13cef2ad7bccd9d06bd0b8a773ccc40b1bc5fb84dbdc7acb43c4ee74abcf85c0bbdb79ada3c0020eabc5fb84dbd61d02b3c0034edbccbd409bd2d092e39aaa1f3bc5fb84dbd2e0c9a3b70d170bc093a44bdb79ada3cde35c4bccd9d06bdc03b983c0020eabccd9d06bd61d02b3c70d170bccd9d06bdb79ada3ccc40b1bc7e4431bdc7acb43cb3f067bce6cf4abd2e96c83c
  m_CompressedMesh:
    m_Vertices:
      m_NumItems: 0
      m_Range: 0
      m_Start: 0
      m_Data: 
      m_BitSize: 0
    m_UV:
      m_NumItems: 0
      m_Range: 0
      m_Start: 0
      m_Data: 
      m_BitSize: 0
    m_Normals:
      m_NumItems: 0
      m_Range: 0
      m_Start: 0
      m_Data: 
      m_BitSize: 0
    m_Tangents:
      m_NumItems: 0
      m_Range: 0
      m_Start: 0
      m_Data: 
      m_BitSize: 0
    m_Weights:
      m_NumItems: 0
      m_Data: 
      m_BitSize: 0
    m_NormalSigns:
      m_NumItems: 0
      m_Data: 
      m_BitSize: 0
    m_TangentSigns:
      m_NumItems: 0
      m_Data: 
      m_BitSize: 0
    m_FloatColors:
      m_NumItems: 0
      m_Range: 0
      m_Start: 0
      m_Data: 
      m_BitSize: 0
    m_BoneIndices:
      m_NumItems: 0
      m_Data: 
      m_BitSize: 0
    m_Triangles:
      m_NumItems: 0
      m_Data: 
      m_BitSize: 0
    m_UVInfo: 0
  m_LocalAABB:
    m_Center: {x: -0.02106221, y: -0.04185678, z: 0.012298789}
    m_Extent: {x: 0.008677962, y: 0.008991446, z: 0.014386313}
  m_MeshUsageFlags: 0
  m_CookingOptions: 30
  m_BakedConvexCollisionMesh: 
  m_BakedTriangleCollisionMesh: 
  m_MeshMetrics[0]: 1
  m_MeshMetrics[1]: 1
  m_MeshOptimizationFlags: 1
  m_StreamData:
    serializedVersion: 2
    offset: 0
    size: 0
    path: 
