%YAML 1.1
%TAG !u! tag:unity3d.com,2011:
--- !u!43 &4300000
Mesh:
  m_ObjectHideFlags: 0
  m_CorrespondingSourceObject: {fileID: 0}
  m_PrefabInstance: {fileID: 0}
  m_PrefabAsset: {fileID: 0}
  m_Name: hull3
  serializedVersion: 11
  m_SubMeshes:
  - serializedVersion: 2
    firstByte: 0
    indexCount: 126
    topology: 0
    baseVertex: 0
    firstVertex: 0
    vertexCount: 23
    localAABB:
      m_Center: {x: 0.09485511, y: 0.21711193, z: 0.40989468}
      m_Extent: {x: 0.21257806, y: 0.13649063, z: 0.042358905}
  m_Shapes:
    vertices: []
    shapes: []
    channels: []
    fullWeights: []
  m_BindPose: []
  m_BoneNameHashes: 
  m_RootBoneNameHash: 0
  m_BonesAABB: []
  m_VariableBoneCountWeights:
    m_Data: 
  m_MeshCompression: 0
  m_IsReadable: 1
  m_KeepVertices: 1
  m_KeepIndices: 1
  m_IndexFormat: 0
  m_IndexBuffer: 13000f001600010000000400020005000600020001000700010003000700050002000700030001000800010004000800040003000800000001000900020006000b00000009000b00030004000c00070003000c00010002000d00090001000d0002000b000d000b0009000d000b0006000e000b000e000f00040000000f000a0004000f0000000b000f000e000500100005000700110007000c0011001000050011000c00100011000c00040012000a000f00130010000a0013000e001000130006000500140005000e0014000e000600140004000a00150010000c0015000a00100015001200040015000c00120015000f000e0016000e0013001600
  m_VertexData:
    serializedVersion: 3
    m_VertexCount: 23
    m_Channels:
    - stream: 0
      offset: 0
      format: 0
      dimension: 3
    - stream: 0
      offset: 0
      format: 0
      dimension: 0
    - stream: 0
      offset: 0
      format: 0
      dimension: 0
    - stream: 0
      offset: 0
      format: 0
      dimension: 0
    - stream: 0
      offset: 0
      format: 0
      dimension: 0
    - stream: 0
      offset: 0
      format: 0
      dimension: 0
    - stream: 0
      offset: 0
      format: 0
      dimension: 0
    - stream: 0
      offset: 0
      format: 0
      dimension: 0
    - stream: 0
      offset: 0
      format: 0
      dimension: 0
    - stream: 0
      offset: 0
      format: 0
      dimension: 0
    - stream: 0
      offset: 0
      format: 0
      dimension: 0
    - stream: 0
      offset: 0
      format: 0
      dimension: 0
    - stream: 0
      offset: 0
      format: 0
      dimension: 0
    - stream: 0
      offset: 0
      format: 0
      dimension: 0
    m_DataSize: 276
    _typelessdata: 8f288f3e6410b03e3f20bf3eba18f1bd0283943ea62dbc3eaf0bd3bdf90fa73ec88de73eaf0bd3bdc81ca53d7794d93ef2dc733ec81ca53dd2a1bd3e6ee78e3e4f01f93dc88de73ef8e7873ef90fa73ec88de73eaf0bd3bd770add3dc88de73ed6aeaabd2227bf3d2aedc53eb266d0bd349eb43e92c2bd3ee1679d3e327e0f3e5fe2be3e6ee78e3e650bb53e7794d93ef8e7873ec81ca53d7794d93eaf0bd3bd650bb53e7794d93e76e1953ef90fa73ea691e03e0b199c3ed98b9c3e2a23bf3e76e1953e770add3da691e03ef8e7873e770add3dc88de73e0e788e3edf13bb3d7847bf3ec7e49b3ecea9103ee820cc3e6ee78e3ec30ea03ec88de73e86fc943e0aacd43dcb43bf3e79859a3eacd59b3e8a37cc3e
  m_CompressedMesh:
    m_Vertices:
      m_NumItems: 0
      m_Range: 0
      m_Start: 0
      m_Data: 
      m_BitSize: 0
    m_UV:
      m_NumItems: 0
      m_Range: 0
      m_Start: 0
      m_Data: 
      m_BitSize: 0
    m_Normals:
      m_NumItems: 0
      m_Range: 0
      m_Start: 0
      m_Data: 
      m_BitSize: 0
    m_Tangents:
      m_NumItems: 0
      m_Range: 0
      m_Start: 0
      m_Data: 
      m_BitSize: 0
    m_Weights:
      m_NumItems: 0
      m_Data: 
      m_BitSize: 0
    m_NormalSigns:
      m_NumItems: 0
      m_Data: 
      m_BitSize: 0
    m_TangentSigns:
      m_NumItems: 0
      m_Data: 
      m_BitSize: 0
    m_FloatColors:
      m_NumItems: 0
      m_Range: 0
      m_Start: 0
      m_Data: 
      m_BitSize: 0
    m_BoneIndices:
      m_NumItems: 0
      m_Data: 
      m_BitSize: 0
    m_Triangles:
      m_NumItems: 0
      m_Data: 
      m_BitSize: 0
    m_UVInfo: 0
  m_LocalAABB:
    m_Center: {x: 0.09485511, y: 0.21711193, z: 0.40989468}
    m_Extent: {x: 0.21257806, y: 0.13649063, z: 0.042358905}
  m_MeshUsageFlags: 0
  m_CookingOptions: 30
  m_BakedConvexCollisionMesh: 
  m_BakedTriangleCollisionMesh: 
  m_MeshMetrics[0]: 1
  m_MeshMetrics[1]: 1
  m_MeshOptimizationFlags: 1
  m_StreamData:
    serializedVersion: 2
    offset: 0
    size: 0
    path: 
