%YAML 1.1
%TAG !u! tag:unity3d.com,2011:
--- !u!43 &4300000
Mesh:
  m_ObjectHideFlags: 0
  m_CorrespondingSourceObject: {fileID: 0}
  m_PrefabInstance: {fileID: 0}
  m_PrefabAsset: {fileID: 0}
  m_Name: hull1
  serializedVersion: 11
  m_SubMeshes:
  - serializedVersion: 2
    firstByte: 0
    indexCount: 126
    topology: 0
    baseVertex: 0
    firstVertex: 0
    vertexCount: 23
    localAABB:
      m_Center: {x: 0.17989804, y: 0.21711193, z: -0.3365366}
      m_Extent: {x: 0.12815224, y: 0.13649063, z: 0.08471778}
  m_Shapes:
    vertices: []
    shapes: []
    channels: []
    fullWeights: []
  m_BindPose: []
  m_BoneNameHashes: 
  m_RootBoneNameHash: 0
  m_BonesAABB: []
  m_VariableBoneCountWeights:
    m_Data: 
  m_MeshCompression: 0
  m_IsReadable: 1
  m_KeepVertices: 1
  m_KeepIndices: 1
  m_IndexFormat: 0
  m_IndexBuffer: 100008001600010002000600030002000700020001000900010005000900070002000900050001000b00080005000b00060002000c0000000a000d00030007000e00050008000e00070009000e00040001000f00010006000f00060004000f0003000e0010000e00080010000a000800110008000b0011000d000a0011000d001100120004000600120006000c0012000c000d0012001100040012000100040013000b000100130004001100130011000b0013000200030014000a000000140003000a0014000c000200140000000d0014000d000c00140009000500150005000e0015000e00090015000a000300160008000a001600030010001600
  m_VertexData:
    serializedVersion: 3
    m_VertexCount: 23
    m_Channels:
    - stream: 0
      offset: 0
      format: 0
      dimension: 3
    - stream: 0
      offset: 0
      format: 0
      dimension: 0
    - stream: 0
      offset: 0
      format: 0
      dimension: 0
    - stream: 0
      offset: 0
      format: 0
      dimension: 0
    - stream: 0
      offset: 0
      format: 0
      dimension: 0
    - stream: 0
      offset: 0
      format: 0
      dimension: 0
    - stream: 0
      offset: 0
      format: 0
      dimension: 0
    - stream: 0
      offset: 0
      format: 0
      dimension: 0
    - stream: 0
      offset: 0
      format: 0
      dimension: 0
    - stream: 0
      offset: 0
      format: 0
      dimension: 0
    - stream: 0
      offset: 0
      format: 0
      dimension: 0
    - stream: 0
      offset: 0
      format: 0
      dimension: 0
    - stream: 0
      offset: 0
      format: 0
      dimension: 0
    - stream: 0
      offset: 0
      format: 0
      dimension: 0
    m_DataSize: 276
    _typelessdata: ef979c3e91b19a3e0f7088be98c9783df90fa73ea7aed7be69f3533d0283943e65ee80beb4de733ec81ca53dbdd683bee1e28e3e650bb53ea2b4c9bee1e28e3e4f01f93da7aed7be73077c3d349eb43e3e1884be98c9783dc81ca53da8beb4be54e29c3e770add3da2b4c9be98c9783d770add3da7aed7bec4b89d3ed041123eacb987bee1e28e3ec30ea03ea7aed7be38df903ebb59ae3ebcda87be54e29c3eaf0dae3eacb8c2bee1e28e3ea013c13d98b0d0beedf7943dd693ae3e9a1ec7be9568903e455cc23da43988be54e29c3ef90fa73ea2b4c9be44e4953e650bb53eacb8c2be79eb873ef90fa73ea7aed7bea931973e4a07a83ed8da87be79eb873e770add3da7aed7be32ab963eb766db3dc03988be
  m_CompressedMesh:
    m_Vertices:
      m_NumItems: 0
      m_Range: 0
      m_Start: 0
      m_Data: 
      m_BitSize: 0
    m_UV:
      m_NumItems: 0
      m_Range: 0
      m_Start: 0
      m_Data: 
      m_BitSize: 0
    m_Normals:
      m_NumItems: 0
      m_Range: 0
      m_Start: 0
      m_Data: 
      m_BitSize: 0
    m_Tangents:
      m_NumItems: 0
      m_Range: 0
      m_Start: 0
      m_Data: 
      m_BitSize: 0
    m_Weights:
      m_NumItems: 0
      m_Data: 
      m_BitSize: 0
    m_NormalSigns:
      m_NumItems: 0
      m_Data: 
      m_BitSize: 0
    m_TangentSigns:
      m_NumItems: 0
      m_Data: 
      m_BitSize: 0
    m_FloatColors:
      m_NumItems: 0
      m_Range: 0
      m_Start: 0
      m_Data: 
      m_BitSize: 0
    m_BoneIndices:
      m_NumItems: 0
      m_Data: 
      m_BitSize: 0
    m_Triangles:
      m_NumItems: 0
      m_Data: 
      m_BitSize: 0
    m_UVInfo: 0
  m_LocalAABB:
    m_Center: {x: 0.17989804, y: 0.21711193, z: -0.3365366}
    m_Extent: {x: 0.12815224, y: 0.13649063, z: 0.08471778}
  m_MeshUsageFlags: 0
  m_CookingOptions: 30
  m_BakedConvexCollisionMesh: 
  m_BakedTriangleCollisionMesh: 
  m_MeshMetrics[0]: 1
  m_MeshMetrics[1]: 1
  m_MeshOptimizationFlags: 1
  m_StreamData:
    serializedVersion: 2
    offset: 0
    size: 0
    path: 
