%YAML 1.1
%TAG !u! tag:unity3d.com,2011:
--- !u!43 &4300000
Mesh:
  m_ObjectHideFlags: 0
  m_CorrespondingSourceObject: {fileID: 0}
  m_PrefabInstance: {fileID: 0}
  m_PrefabAsset: {fileID: 0}
  m_Name: hull9
  serializedVersion: 11
  m_SubMeshes:
  - serializedVersion: 2
    firstByte: 0
    indexCount: 114
    topology: 0
    baseVertex: 0
    firstVertex: 0
    vertexCount: 21
    localAABB:
      m_Center: {x: 0.093199514, y: 0.32398123, z: 0.18639076}
      m_Extent: {x: 0.21485075, y: 0.056919456, z: 0.20018429}
  m_Shapes:
    vertices: []
    shapes: []
    channels: []
    fullWeights: []
  m_BindPose: []
  m_BoneNameHashes: 
  m_RootBoneNameHash: 0
  m_BonesAABB: []
  m_VariableBoneCountWeights:
    m_Data: 
  m_MeshCompression: 0
  m_IsReadable: 1
  m_KeepVertices: 1
  m_KeepIndices: 1
  m_IndexFormat: 0
  m_IndexBuffer: 100012001400020006000800020001000900060002000900040006000900010007000900070005000900030008000a00000005000b00060000000b00080006000b00040000000c00000006000c00060004000c00050007000d0003000a000d0005000a000e000a0008000e0008000b000e000b0005000e00010002000f00020003000f00070001000f0003000d000f000d0007000f000300020010000000040011000500000011000400090011000900050011000200080012000800030012001000020012000a000500130005000d0013000d000a001300030010001400120003001400
  m_VertexData:
    serializedVersion: 3
    m_VertexCount: 21
    m_Channels:
    - stream: 0
      offset: 0
      format: 0
      dimension: 3
    - stream: 0
      offset: 0
      format: 0
      dimension: 0
    - stream: 0
      offset: 0
      format: 0
      dimension: 0
    - stream: 0
      offset: 0
      format: 0
      dimension: 0
    - stream: 0
      offset: 0
      format: 0
      dimension: 0
    - stream: 0
      offset: 0
      format: 0
      dimension: 0
    - stream: 0
      offset: 0
      format: 0
      dimension: 0
    - stream: 0
      offset: 0
      format: 0
      dimension: 0
    - stream: 0
      offset: 0
      format: 0
      dimension: 0
    - stream: 0
      offset: 0
      format: 0
      dimension: 0
    - stream: 0
      offset: 0
      format: 0
      dimension: 0
    - stream: 0
      offset: 0
      format: 0
      dimension: 0
    - stream: 0
      offset: 0
      format: 0
      dimension: 0
    - stream: 0
      offset: 0
      format: 0
      dimension: 0
    m_DataSize: 252
    _typelessdata: ece09c3efc0cae3ed2a1bd3eaf0bd3bd581a923e0047f73a4a24f9bd7142903e2aedc53eaf0bd3bd6a05c33e38ac9a3ec4b89d3ef2b38c3e8f6e4a3c76e1953e650bb53e0047f73a1c297f3e52bc883e0ba9c53ec0d2c5bd349eb43ed40ff63bd40f093d6a05c33ed2a1bd3e1c297f3e52bc883e47fe61bc2224ec3d6a05c33eaeb11b3e76e1953e650bb53ed2a1bd3ec4b89d3ef2b38c3ea545b83e2063f4bb6a05c33e8778e33dfe10043e6a05c33e4da7a13eaf0bd3bd6a05c33ed9a7293ec0d2c5bd349eb43edac0ba3eece09c3efc0cae3e0047f73a001fca3b6a05c33ed2a1bd3ed40f093d6a05c33e8778e33dff0f9bbd6a05c33e62a2a83e
  m_CompressedMesh:
    m_Vertices:
      m_NumItems: 0
      m_Range: 0
      m_Start: 0
      m_Data: 
      m_BitSize: 0
    m_UV:
      m_NumItems: 0
      m_Range: 0
      m_Start: 0
      m_Data: 
      m_BitSize: 0
    m_Normals:
      m_NumItems: 0
      m_Range: 0
      m_Start: 0
      m_Data: 
      m_BitSize: 0
    m_Tangents:
      m_NumItems: 0
      m_Range: 0
      m_Start: 0
      m_Data: 
      m_BitSize: 0
    m_Weights:
      m_NumItems: 0
      m_Data: 
      m_BitSize: 0
    m_NormalSigns:
      m_NumItems: 0
      m_Data: 
      m_BitSize: 0
    m_TangentSigns:
      m_NumItems: 0
      m_Data: 
      m_BitSize: 0
    m_FloatColors:
      m_NumItems: 0
      m_Range: 0
      m_Start: 0
      m_Data: 
      m_BitSize: 0
    m_BoneIndices:
      m_NumItems: 0
      m_Data: 
      m_BitSize: 0
    m_Triangles:
      m_NumItems: 0
      m_Data: 
      m_BitSize: 0
    m_UVInfo: 0
  m_LocalAABB:
    m_Center: {x: 0.093199514, y: 0.32398123, z: 0.18639076}
    m_Extent: {x: 0.21485075, y: 0.056919456, z: 0.20018429}
  m_MeshUsageFlags: 0
  m_CookingOptions: 30
  m_BakedConvexCollisionMesh: 
  m_BakedTriangleCollisionMesh: 
  m_MeshMetrics[0]: 1
  m_MeshMetrics[1]: 1
  m_MeshOptimizationFlags: 1
  m_StreamData:
    serializedVersion: 2
    offset: 0
    size: 0
    path: 
