%YAML 1.1
%TAG !u! tag:unity3d.com,2011:
--- !u!43 &4300000
Mesh:
  m_ObjectHideFlags: 0
  m_CorrespondingSourceObject: {fileID: 0}
  m_PrefabInstance: {fileID: 0}
  m_PrefabAsset: {fileID: 0}
  m_Name: hull7
  serializedVersion: 11
  m_SubMeshes:
  - serializedVersion: 2
    firstByte: 0
    indexCount: 96
    topology: 0
    baseVertex: 0
    firstVertex: 0
    vertexCount: 18
    localAABB:
      m_Center: {x: -0.19859307, y: 0.18064389, z: 0.40939516}
      m_Extent: {x: 0.09554343, y: 0.100022584, z: 0.042858437}
  m_Shapes:
    vertices: []
    shapes: []
    channels: []
    fullWeights: []
  m_BindPose: []
  m_BoneNameHashes: 
  m_RootBoneNameHash: 0
  m_BonesAABB: []
  m_VariableBoneCountWeights:
    m_Data: 
  m_MeshCompression: 0
  m_IsReadable: 1
  m_KeepVertices: 1
  m_KeepIndices: 1
  m_IndexFormat: 0
  m_IndexBuffer: 09000a001100020001000500000003000700050000000800060005000800030000000900050004000900000005000900090004000a00000007000b00070003000b00080000000b00060008000b00010004000c00050001000c00040005000c0003000a000d0002000b000d000b0003000d00020005000e00050006000e000b0002000e0006000b000e00040001000f000a0004000f000a000f00100001000200100002000d0010000d000a0010000f00010010000300090011000a0003001100
  m_VertexData:
    serializedVersion: 3
    m_VertexCount: 18
    m_Channels:
    - stream: 0
      offset: 0
      format: 0
      dimension: 3
    - stream: 0
      offset: 0
      format: 0
      dimension: 0
    - stream: 0
      offset: 0
      format: 0
      dimension: 0
    - stream: 0
      offset: 0
      format: 0
      dimension: 0
    - stream: 0
      offset: 0
      format: 0
      dimension: 0
    - stream: 0
      offset: 0
      format: 0
      dimension: 0
    - stream: 0
      offset: 0
      format: 0
      dimension: 0
    - stream: 0
      offset: 0
      format: 0
      dimension: 0
    - stream: 0
      offset: 0
      format: 0
      dimension: 0
    - stream: 0
      offset: 0
      format: 0
      dimension: 0
    - stream: 0
      offset: 0
      format: 0
      dimension: 0
    - stream: 0
      offset: 0
      format: 0
      dimension: 0
    - stream: 0
      offset: 0
      format: 0
      dimension: 0
    - stream: 0
      offset: 0
      format: 0
      dimension: 0
    m_DataSize: 216
    _typelessdata: b00bd3bd561d8b3ec88de73e0f9996be770add3dd2a1bd3e309b88bec81ca53dd2a1bd3e6f4475be770add3dc88de73e0f9996be561d8b3e7794d93eaeec69be84b38f3eb3aabb3e2246e5bd3b57b73d2aedc53eb00bd3bd770add3dc88de73e2246e5bdb98e863e2aedc53e309b88be561d8b3ec88de73e599b8fbe4e01f93da691e03eb00bd3bdc81ca53d7794d93e8e1a93bed59e873e1b21bf3eee9f81bec81ca53d7794d93eeb4d67bec81ca53dd2a1bd3e0f9996be2c770a3e7794d93e599b8fbea013c13d5498d23e309b88be2c770a3ec88de73e
  m_CompressedMesh:
    m_Vertices:
      m_NumItems: 0
      m_Range: 0
      m_Start: 0
      m_Data: 
      m_BitSize: 0
    m_UV:
      m_NumItems: 0
      m_Range: 0
      m_Start: 0
      m_Data: 
      m_BitSize: 0
    m_Normals:
      m_NumItems: 0
      m_Range: 0
      m_Start: 0
      m_Data: 
      m_BitSize: 0
    m_Tangents:
      m_NumItems: 0
      m_Range: 0
      m_Start: 0
      m_Data: 
      m_BitSize: 0
    m_Weights:
      m_NumItems: 0
      m_Data: 
      m_BitSize: 0
    m_NormalSigns:
      m_NumItems: 0
      m_Data: 
      m_BitSize: 0
    m_TangentSigns:
      m_NumItems: 0
      m_Data: 
      m_BitSize: 0
    m_FloatColors:
      m_NumItems: 0
      m_Range: 0
      m_Start: 0
      m_Data: 
      m_BitSize: 0
    m_BoneIndices:
      m_NumItems: 0
      m_Data: 
      m_BitSize: 0
    m_Triangles:
      m_NumItems: 0
      m_Data: 
      m_BitSize: 0
    m_UVInfo: 0
  m_LocalAABB:
    m_Center: {x: -0.19859307, y: 0.18064389, z: 0.40939516}
    m_Extent: {x: 0.09554343, y: 0.100022584, z: 0.042858437}
  m_MeshUsageFlags: 0
  m_CookingOptions: 30
  m_BakedConvexCollisionMesh: 
  m_BakedTriangleCollisionMesh: 
  m_MeshMetrics[0]: 1
  m_MeshMetrics[1]: 1
  m_MeshOptimizationFlags: 1
  m_StreamData:
    serializedVersion: 2
    offset: 0
    size: 0
    path: 
