%YAML 1.1
%TAG !u! tag:unity3d.com,2011:
--- !u!43 &4300000
Mesh:
  m_ObjectHideFlags: 0
  m_CorrespondingSourceObject: {fileID: 0}
  m_PrefabInstance: {fileID: 0}
  m_PrefabAsset: {fileID: 0}
  m_Name: hull2
  serializedVersion: 11
  m_SubMeshes:
  - serializedVersion: 2
    firstByte: 0
    indexCount: 90
    topology: 0
    baseVertex: 0
    firstVertex: 0
    vertexCount: 17
    localAABB:
      m_Center: {x: -0.19781509, y: 0.31072813, z: 0.21308982}
      m_Extent: {x: 0.096321404, y: 0.042858437, z: 0.23235524}
  m_Shapes:
    vertices: []
    shapes: []
    channels: []
    fullWeights: []
  m_BindPose: []
  m_BoneNameHashes: 
  m_RootBoneNameHash: 0
  m_BonesAABB: []
  m_VariableBoneCountWeights:
    m_Data: 
  m_MeshCompression: 0
  m_IsReadable: 1
  m_KeepVertices: 1
  m_KeepIndices: 1
  m_IndexFormat: 0
  m_IndexBuffer: 0f0006001000020004000500020003000700040002000700040007000800070003000800080003000900020000000900030002000900060008000900000002000a00020005000a00050000000a00050004000b00040008000b00080001000b00000005000c00010008000d000b0001000d000d0005000e0005000b000e000b000d000e00080006000f000d0008000f000d000f00100009000000100006000900100000000c0010000c000500100005000d001000
  m_VertexData:
    serializedVersion: 3
    m_VertexCount: 17
    m_Channels:
    - stream: 0
      offset: 0
      format: 0
      dimension: 3
    - stream: 0
      offset: 0
      format: 0
      dimension: 0
    - stream: 0
      offset: 0
      format: 0
      dimension: 0
    - stream: 0
      offset: 0
      format: 0
      dimension: 0
    - stream: 0
      offset: 0
      format: 0
      dimension: 0
    - stream: 0
      offset: 0
      format: 0
      dimension: 0
    - stream: 0
      offset: 0
      format: 0
      dimension: 0
    - stream: 0
      offset: 0
      format: 0
      dimension: 0
    - stream: 0
      offset: 0
      format: 0
      dimension: 0
    - stream: 0
      offset: 0
      format: 0
      dimension: 0
    - stream: 0
      offset: 0
      format: 0
      dimension: 0
    - stream: 0
      offset: 0
      format: 0
      dimension: 0
    - stream: 0
      offset: 0
      format: 0
      dimension: 0
    - stream: 0
      offset: 0
      format: 0
      dimension: 0
    m_DataSize: 204
    _typelessdata: 0f9996befb0fa73e008df23a0489e1bd888ba63e0606df3eaeec69be3726893e78d29dbc6df3d6bd349eb43e9febcf3becdbcfbdf3c58a3e2aedc53e0f9996be561d8b3ef490d93e309b88be4c09b53e4697d23eb00bd3bd931b923e008df23ab00bd3bd4c09b53ef490d93e309b88be4c09b53e008df23a8e1a93be9f9c8c3e64f0923ca2f9d8bdf1bf8b3e6011e43e0f9996befb0fa73ed097cb3e309b88be2a0dae3ea48ae03e39ca85be04ce8c3ead43de3eee9f81be4c09b53ef490d93e599b8fbe2a0dae3ef490d93e
  m_CompressedMesh:
    m_Vertices:
      m_NumItems: 0
      m_Range: 0
      m_Start: 0
      m_Data: 
      m_BitSize: 0
    m_UV:
      m_NumItems: 0
      m_Range: 0
      m_Start: 0
      m_Data: 
      m_BitSize: 0
    m_Normals:
      m_NumItems: 0
      m_Range: 0
      m_Start: 0
      m_Data: 
      m_BitSize: 0
    m_Tangents:
      m_NumItems: 0
      m_Range: 0
      m_Start: 0
      m_Data: 
      m_BitSize: 0
    m_Weights:
      m_NumItems: 0
      m_Data: 
      m_BitSize: 0
    m_NormalSigns:
      m_NumItems: 0
      m_Data: 
      m_BitSize: 0
    m_TangentSigns:
      m_NumItems: 0
      m_Data: 
      m_BitSize: 0
    m_FloatColors:
      m_NumItems: 0
      m_Range: 0
      m_Start: 0
      m_Data: 
      m_BitSize: 0
    m_BoneIndices:
      m_NumItems: 0
      m_Data: 
      m_BitSize: 0
    m_Triangles:
      m_NumItems: 0
      m_Data: 
      m_BitSize: 0
    m_UVInfo: 0
  m_LocalAABB:
    m_Center: {x: -0.19781509, y: 0.31072813, z: 0.21308982}
    m_Extent: {x: 0.096321404, y: 0.042858437, z: 0.23235524}
  m_MeshUsageFlags: 0
  m_CookingOptions: 30
  m_BakedConvexCollisionMesh: 
  m_BakedTriangleCollisionMesh: 
  m_MeshMetrics[0]: 1
  m_MeshMetrics[1]: 1
  m_MeshOptimizationFlags: 1
  m_StreamData:
    serializedVersion: 2
    offset: 0
    size: 0
    path: 
