%YAML 1.1
%TAG !u! tag:unity3d.com,2011:
--- !u!43 &4300000
Mesh:
  m_ObjectHideFlags: 0
  m_CorrespondingSourceObject: {fileID: 0}
  m_PrefabInstance: {fileID: 0}
  m_PrefabAsset: {fileID: 0}
  m_Name: hull0
  serializedVersion: 11
  m_SubMeshes:
  - serializedVersion: 2
    firstByte: 0
    indexCount: 138
    topology: 0
    baseVertex: 0
    firstVertex: 0
    vertexCount: 25
    localAABB:
      m_Center: {x: -0.11054535, y: 0.21711193, z: -0.3788955}
      m_Extent: {x: 0.18359114, y: 0.13649063, z: 0.042358905}
  m_Shapes:
    vertices: []
    shapes: []
    channels: []
    fullWeights: []
  m_BindPose: []
  m_BoneNameHashes: 
  m_RootBoneNameHash: 0
  m_BonesAABB: []
  m_VariableBoneCountWeights:
    m_Data: 
  m_MeshCompression: 0
  m_IsReadable: 1
  m_KeepVertices: 1
  m_KeepIndices: 1
  m_IndexFormat: 0
  m_IndexBuffer: 0d0011001800030000000700050003000800070006000900070009000a00020001000a00030007000a00080003000a00050008000a00090002000a00060007000c00050004000d00040005000e000a0001000e0005000a000e000b0004000e000d0004000f000100020010000e00010010000b000e0010000300050011000d000f00110004000b0012000f00040012000c000f00120006000c0013000c00120013000700000014000c00070014000000030015001100000015000300110015000f000c00160000001100160011000f0016001400000016000c00140016000200090017000900060017001000020017000b001000170012000b00170006001300170013001200170005000d001800110005001800
  m_VertexData:
    serializedVersion: 3
    m_VertexCount: 25
    m_Channels:
    - stream: 0
      offset: 0
      format: 0
      dimension: 3
    - stream: 0
      offset: 0
      format: 0
      dimension: 0
    - stream: 0
      offset: 0
      format: 0
      dimension: 0
    - stream: 0
      offset: 0
      format: 0
      dimension: 0
    - stream: 0
      offset: 0
      format: 0
      dimension: 0
    - stream: 0
      offset: 0
      format: 0
      dimension: 0
    - stream: 0
      offset: 0
      format: 0
      dimension: 0
    - stream: 0
      offset: 0
      format: 0
      dimension: 0
    - stream: 0
      offset: 0
      format: 0
      dimension: 0
    - stream: 0
      offset: 0
      format: 0
      dimension: 0
    - stream: 0
      offset: 0
      format: 0
      dimension: 0
    - stream: 0
      offset: 0
      format: 0
      dimension: 0
    - stream: 0
      offset: 0
      format: 0
      dimension: 0
    - stream: 0
      offset: 0
      format: 0
      dimension: 0
    m_DataSize: 300
    _typelessdata: 6c9c81bea013c13d86b2d0be015a743d349eb43e72e3adbe98c9783d650bb53e57b5c9be98c9783dc81ca53d57b5c9be97c98fbe2cdfa23ef554afbe844c67bec81ca53db2c2adbe213e75bef90fa73ea8aed7be98c9783d770add3da8aed7be1315353d2227bf3d0a0eb6be98c9783df90fa73ea8aed7be0799953d0283943e864eacbe25978fbeaf0dae3e57b5c9bec99988be137c0a3ea8aed7befe898fbe326aee3da163afbe1ac683bebfa7b03eb913afbe0f9996be137c0a3e57b5c9be6c9c81be650bb53e57b5c9bec99988bec81ca53d34b9c2be0f9996be8e14993e57b5c9bec99988be8e14993ea8aed7be213e75be770add3da8aed7be6c9c81bec81ca53d57b5c9be25978fbe4f01f93d86b2d0bec99988beaf0dae3e86b2d0bededa82be0103ba3de253afbe
  m_CompressedMesh:
    m_Vertices:
      m_NumItems: 0
      m_Range: 0
      m_Start: 0
      m_Data: 
      m_BitSize: 0
    m_UV:
      m_NumItems: 0
      m_Range: 0
      m_Start: 0
      m_Data: 
      m_BitSize: 0
    m_Normals:
      m_NumItems: 0
      m_Range: 0
      m_Start: 0
      m_Data: 
      m_BitSize: 0
    m_Tangents:
      m_NumItems: 0
      m_Range: 0
      m_Start: 0
      m_Data: 
      m_BitSize: 0
    m_Weights:
      m_NumItems: 0
      m_Data: 
      m_BitSize: 0
    m_NormalSigns:
      m_NumItems: 0
      m_Data: 
      m_BitSize: 0
    m_TangentSigns:
      m_NumItems: 0
      m_Data: 
      m_BitSize: 0
    m_FloatColors:
      m_NumItems: 0
      m_Range: 0
      m_Start: 0
      m_Data: 
      m_BitSize: 0
    m_BoneIndices:
      m_NumItems: 0
      m_Data: 
      m_BitSize: 0
    m_Triangles:
      m_NumItems: 0
      m_Data: 
      m_BitSize: 0
    m_UVInfo: 0
  m_LocalAABB:
    m_Center: {x: -0.11054535, y: 0.21711193, z: -0.3788955}
    m_Extent: {x: 0.18359114, y: 0.13649063, z: 0.042358905}
  m_MeshUsageFlags: 0
  m_CookingOptions: 30
  m_BakedConvexCollisionMesh: 
  m_BakedTriangleCollisionMesh: 
  m_MeshMetrics[0]: 1
  m_MeshMetrics[1]: 1
  m_MeshOptimizationFlags: 1
  m_StreamData:
    serializedVersion: 2
    offset: 0
    size: 0
    path: 
