%YAML 1.1
%TAG !u! tag:unity3d.com,2011:
--- !u!43 &4300000
Mesh:
  m_ObjectHideFlags: 0
  m_CorrespondingSourceObject: {fileID: 0}
  m_PrefabInstance: {fileID: 0}
  m_PrefabAsset: {fileID: 0}
  m_Name: hull12
  serializedVersion: 11
  m_SubMeshes:
  - serializedVersion: 2
    firstByte: 0
    indexCount: 60
    topology: 0
    baseVertex: 0
    firstVertex: 0
    vertexCount: 12
    localAABB:
      m_Center: {x: 0.27911615, y: 0.17616475, z: -0.16193824}
      m_Extent: {x: 0.040939167, y: 0.095543444, z: 0.09552474}
  m_Shapes:
    vertices: []
    shapes: []
    channels: []
    fullWeights: []
  m_BindPose: []
  m_BoneNameHashes: 
  m_RootBoneNameHash: 0
  m_BonesAABB: []
  m_VariableBoneCountWeights:
    m_Data: 
  m_MeshCompression: 0
  m_IsReadable: 1
  m_KeepVertices: 1
  m_KeepIndices: 1
  m_IndexFormat: 0
  m_IndexBuffer: 080004000b00020001000300010002000400030000000500020003000600050002000600030005000600040002000700020005000700050000000700030001000800000003000800040008000900010004000900080001000900000004000a00070000000a00040007000a00040000000b00000008000b00
  m_VertexData:
    serializedVersion: 3
    m_VertexCount: 12
    m_Channels:
    - stream: 0
      offset: 0
      format: 0
      dimension: 3
    - stream: 0
      offset: 0
      format: 0
      dimension: 0
    - stream: 0
      offset: 0
      format: 0
      dimension: 0
    - stream: 0
      offset: 0
      format: 0
      dimension: 0
    - stream: 0
      offset: 0
      format: 0
      dimension: 0
    - stream: 0
      offset: 0
      format: 0
      dimension: 0
    - stream: 0
      offset: 0
      format: 0
      dimension: 0
    - stream: 0
      offset: 0
      format: 0
      dimension: 0
    - stream: 0
      offset: 0
      format: 0
      dimension: 0
    - stream: 0
      offset: 0
      format: 0
      dimension: 0
    - stream: 0
      offset: 0
      format: 0
      dimension: 0
    - stream: 0
      offset: 0
      format: 0
      dimension: 0
    - stream: 0
      offset: 0
      format: 0
      dimension: 0
    - stream: 0
      offset: 0
      format: 0
      dimension: 0
    m_DataSize: 144
    _typelessdata: f8e4953ec81ca53d30d283be4adea33e561d8b3ecb0388bdaae4733e561d8b3ecb0388bd4adea33e561d8b3e30d283be28e29c3ea013c13dcb0388bdaae4733ec81ca53d30d283beaae4733e561d8b3e30d283beaae4733ec81ca53dcb0388bd4adea33e2c770a3e30d283be4adea33e2c770a3ecb0388bdf8e4953ec81ca53dcb0388bd28e29c3ea013c13d30d283be
  m_CompressedMesh:
    m_Vertices:
      m_NumItems: 0
      m_Range: 0
      m_Start: 0
      m_Data: 
      m_BitSize: 0
    m_UV:
      m_NumItems: 0
      m_Range: 0
      m_Start: 0
      m_Data: 
      m_BitSize: 0
    m_Normals:
      m_NumItems: 0
      m_Range: 0
      m_Start: 0
      m_Data: 
      m_BitSize: 0
    m_Tangents:
      m_NumItems: 0
      m_Range: 0
      m_Start: 0
      m_Data: 
      m_BitSize: 0
    m_Weights:
      m_NumItems: 0
      m_Data: 
      m_BitSize: 0
    m_NormalSigns:
      m_NumItems: 0
      m_Data: 
      m_BitSize: 0
    m_TangentSigns:
      m_NumItems: 0
      m_Data: 
      m_BitSize: 0
    m_FloatColors:
      m_NumItems: 0
      m_Range: 0
      m_Start: 0
      m_Data: 
      m_BitSize: 0
    m_BoneIndices:
      m_NumItems: 0
      m_Data: 
      m_BitSize: 0
    m_Triangles:
      m_NumItems: 0
      m_Data: 
      m_BitSize: 0
    m_UVInfo: 0
  m_LocalAABB:
    m_Center: {x: 0.27911615, y: 0.17616475, z: -0.16193824}
    m_Extent: {x: 0.040939167, y: 0.095543444, z: 0.09552474}
  m_MeshUsageFlags: 0
  m_CookingOptions: 30
  m_BakedConvexCollisionMesh: 
  m_BakedTriangleCollisionMesh: 
  m_MeshMetrics[0]: 1
  m_MeshMetrics[1]: 1
  m_MeshOptimizationFlags: 1
  m_StreamData:
    serializedVersion: 2
    offset: 0
    size: 0
    path: 
